<svg xmlns:inkscape="http://www.inkscape.org/namespaces/inkscape" xmlns:sodipodi="http://sodipodi.sourceforge.net/DTD/sodipodi-0.dtd" xmlns:svg="http://www.w3.org/2000/svg" xmlns:cc="http://creativecommons.org/ns#" xmlns:dc="http://purl.org/dc/elements/1.1/" xmlns:rdf="http://www.w3.org/1999/02/22-rdf-syntax-ns#" xmlns="http://www.w3.org/2000/svg" xmlns:xlink="http://www.w3.org/1999/xlink" id="svg3336" inkscape:version="0.91 r13725" x="0px" y="0px" viewBox="0 0 722.8 1185" style="enable-background:new 0 0 722.8 1185;" xml:space="preserve" class=" drawsvg-initialized"><path id="path3346" inkscape:connector-curvature="0" class="st0" d="M95.4,1183.4c-0.8-0.9-1.2-2.2-1-2.8c0.2-0.6,0-1.2-0.6-1.2 c-0.7,0-0.8-0.5-0.1-1.7c0.6-1.1,0.6-3.1-0.1-5.7c-0.8-3.1-1.8-4.5-4.6-6.3c-2-1.2-4-2.3-4.5-2.3c-0.5,0-2-1.1-3.3-2.4 c-3.3-3.3-7.4-2.9-7.8,0.7c-0.4,3.5-1.6,4.2-8.2,5c-5.4,0.6-5.7,0.5-6.7-1.7c-0.9-1.9-0.8-2.6,0.3-3.5c0.7-0.6,1.4-2.5,1.4-4.1 c0-3.3,3.2-7.1,6-7.1c0.9,0,3.7-0.9,6.2-2c5-2.2,8.8-1.9,10.8,0.8c0.9,1.3,1.5,1.4,3.6,0.4c1.3-0.6,2.4-1.7,2.4-2.5 c0-1,0.8-1.2,3.1-0.9c2.2,0.4,3.5,0.1,4.3-1c0.7-0.8,2-1.5,2.9-1.5c0.9,0,2.7-1.1,4.1-2.5c1.3-1.3,3.8-3.2,5.5-4.1 c1.9-1,3.5-2.8,4.1-4.8c0.8-2.5,1.9-3.4,5.2-4.6c5.7-2,6.2-2.4,6.9-5.9c1.2-5.9,2.6-8.2,5.1-8.2c1.6,0,3.2-1.1,5-3.3 c1.4-1.8,3.1-3,3.6-2.7c1.3,0.8,9.6,0.8,11-0.1c0.6-0.4,1.7-2.3,2.5-4.3c1.4-3.5,3.2-4.7,7.5-4.7c1.3,0,2.3-1,3.2-3.2 c1.2-3.1,2.7-4.3,7.6-6.1c2.6-0.9,2.9-1.9,4.2-12c0.3-2.7,1-4.9,1.4-4.9c0.4,0,0.8-0.4,0.8-1c0-0.5,0.8-2.8,1.8-4.9 c1-2.2,1.9-4.6,2.2-5.3c0.6-2.1,8.3-1.3,9.9,1c0.9,1.3,2.4,1.8,5,1.8c3.1,0,4.6-0.7,8.5-4l4.7-4l-0.6-4.6c-0.5-4-0.4-4.8,1.4-6 c1.2-0.9,1.8-2.1,1.5-3.1c-0.6-2.2,2.1-3.1,8.3-2.8c2.6,0.1,7.6,0.4,11.2,0.5c14.2,0.6,19.8,1.3,22.9,2.9c1.7,0.9,5.1,1.8,7.5,2.1 s4.7,1.1,5.1,1.8c0.5,0.8,1.6,1.2,2.9,0.8c1.6-0.4,3,0.4,5.8,3.2c4.3,4.4,10,6,15.9,4.7c5-1.1,11.4-1.1,12.2,0 c0.8,1.2,4.8,1.2,7.2-0.1c1.4-0.7,1.8-1.8,1.7-4c-0.1-1.6,0.3-4.2,0.9-5.6c0.6-1.5,1.1-3.1,1.1-3.7s0.3-0.8,0.6-0.4 c0.3,0.3,1.3-0.6,2.1-2.1c1.5-2.7,9.5-9.4,11.2-9.4c0.5,0,1.9-1.2,3.1-2.7c2.8-3.5,5.8-5,8.6-4.3c3.4,0.9,7-2.9,7.4-7.5l0.3-3.8 l-4.2,0.1c-4.5,0.1-7.5,0.7-11.4,2.3c-1.8,0.7-3.6,0.7-6.4-0.1c-3.6-1-4.6-0.8-10.2,1.6c-3.4,1.4-6.4,3-6.6,3.4s-1.6,2.1-3,3.7 c-1.5,1.6-2.7,3.5-2.7,4.2c0,5.7-31-0.3-32.5-6.3c-0.8-3.4-5.8-9.4-7.8-9.4c-2.6,0-3.8-2.1-4.8-8.3c-1.7-10.4-3.6-12.9-10.5-13.8 c-4.8-0.7-7.2,0.5-7.2,3.5c0,1.4-0.7,1.7-3.3,1.6c-1.8-0.1-3.5-0.5-3.8-0.9c-0.7-1.1-4.8-1-5.5,0.2c-1.1,1.7-6.3,1-9.3-1.3 c-2.5-1.9-2.9-2.8-2.6-5.4c0.3-2.3,1.1-3.6,3.2-4.8c2.7-1.6,2.9-1.5,5.6,0.4c2.6,1.9,2.9,1.9,4.3,0.5s1.4-1.7,0-4.1 c-1.3-2.1-2.3-2.6-6-2.9c-5.4-0.4-6.4-1.1-9.3-6.8c-2.5-4.9-2.3-4.8-18-6.1c-5.4-0.4-6.8-0.3-6.8,0.7c0,2.4-5.1,7.1-8.1,7.7 c-1.7,0.3-3.3,0.1-3.6-0.4c-1-1.6-4.7-1-7.9,1.4c-1.7,1.3-3.5,2.3-3.9,2.3c-0.4,0-2.6-1.3-4.9-2.8c-3.3-2.2-4.1-3.2-3.7-4.7 c0.7-2.5-5.1-8.7-7.5-8c-1.2,0.3-1.6-0.1-1.6-1.8c0-1.2-0.4-2.5-0.9-2.8c-2.6-1.6,1.1-5.4,5.9-6l4-0.5v-5.6c0-5.1-0.2-5.7-2-5.9 c-1.1-0.2-2.5-0.9-3.2-1.6c-0.6-0.8-2.7-1.3-4.9-1.3c-3.5,0-3.7-0.2-3.2-2.3c0.4-1.4,0.1-2.4-0.6-2.7c-1.1-0.5,1.7-1,3.4-0.7 c0.5,0.1,2.7-0.7,5-1.8s4.5-1.7,5-1.4c0.5,0.3,1.1,0.1,1.4-0.4s1.8-1,3.2-1c2,0,2.8-0.5,3.2-2.3c0.3-1.3,1.2-2.9,2-3.7 c1.5-1.5,3-1.1,7,1.9c2.1,1.6,11.2,1.1,12.2-0.7c0.5-0.8,2.5-2,4.5-2.7c2.3-0.8,3.9-1.9,4.2-3.1c0.3-1.2,1-1.7,2-1.3 c0.8,0.3,2.2,0.9,3,1.2c1.2,0.5,1.4,0.3,1-0.9c-0.8-2.2,2.1-2.8,9.5-2.1c5.1,0.5,6.5,0.4,7.5-0.9c0.7-0.8,1.9-1.5,2.6-1.5 c0.8,0,2.5-0.9,3.8-1.9c1.6-1.3,3.2-1.7,4.7-1.4c1.3,0.3,2.9,0,3.8-0.7c0.8-0.7,3.2-1.8,5.3-2.5c4-1.4,12.3-8.7,13.3-11.8 c0.3-1,1.3-2.9,2.3-4s2-3.5,2.3-5.2c0.3-1.7,1.4-3.9,2.4-4.9c2.2-2.4,2.4-9.4,0.6-15.9c-1.6-5.7-1-7.7,3.5-11.1 c4.2-3.2,4.4-6,1-13.4c-2.8-6.2-2.8-5.8-0.3-8.5c1.7-1.9,1.9-2.5,0.9-4.6c-0.6-1.3-1.1-3.4-1.1-4.7c0-1.8-0.7-2.4-3.5-3.2 c-4.2-1.2-9.3-1.3-10-0.2c-0.3,0.4-2.7,0.8-5.3,0.9c-4.4,0.1-5.1,0.4-7.8,3.7c-1.6,1.9-2.8,3.9-2.7,4.3c0.5,1.4-2,0.7-4.1-1.2 c-1.6-1.5-2.5-1.7-3.8-1.1c-2.8,1.4-13.5,2.1-13.4,0.8c0-1.4,5.3-7.2,6.5-7.2c0.5,0,1-0.4,1-0.9s1.9-2.4,4.2-4.3 c3.4-2.8,5-3.5,8.2-3.5c2.2,0,4.6-0.5,5.4-1.2s3.7-2.5,6.6-4c5.9-3.1,9.1-8.1,9-14c-0.1-3-0.5-3.6-2.2-3.9c-1.2-0.2-2.1-0.7-2.1-1.1 s-1.3-2.7-2.8-5c-1.5-2.3-2.8-4.9-2.8-5.7c0-2.8-1.9-5.2-4.2-5.2c-2.2,0-3.3-1.6-3.3-4.7c0-1-0.9-1.9-2.3-2.3 c-4.7-1.2-1.8-5.6,3-4.7c2.2,0.4,3.3,0.1,4.8-1.6c1.1-1.2,2-2.9,2-3.7c0-4.9,11.2-6.6,19.1-2.9c4.4,2.1,4.5,2.3,4,5.4 c-0.4,2.2-0.1,3.4,0.8,3.9c0.7,0.4,1.4,2.2,1.6,4l0.3,3.3l5.5,0.2c7.4,0.2,8.2,1.2,4.4,5.5c-4,4.6-3.6,6.6,1.3,6.2 c2.1-0.2,4.4-0.9,5.2-1.6c0.8-0.7,2.5-1.3,3.8-1.3c4.2,0,8.1-1.9,8.6-4.2c0.7-2.9,3.5-2.2,7.8,2.2c3.1,3.1,3.7,3.3,10,3.4 c3.7,0.1,7.3,0.5,7.9,0.9c0.7,0.4,1.5,0.3,2-0.4c0.4-0.6,1.1-0.9,1.6-0.6c0.5,0.3,1.6-0.3,2.4-1.3c1.1-1.3,2.8-1.8,5.8-1.8 c3.8,0,4.4,0.3,5.2,2.6c0.5,1.4,3.5,5.2,6.7,8.4c4.9,5,5.9,5.6,7,4.5c1.7-1.7,0.8-5.3-3.2-12.8c-1.6-3.1-0.3-6.3,2.5-6.3 c1,0,3.7-0.8,6-1.8l4.2-1.8l-0.4-4.7c-0.2-2.6-0.9-5.9-1.4-7.2s-0.7-3.4-0.3-4.4c0.8-2.4,5.7-8.8,8.6-11.2c3-2.4,7.7-7.5,7.7-8.3 c0-0.3-1.5-1.1-3.2-1.7c-1.9-0.6-3.5-1.9-3.9-3.1c-0.9-2.9-0.5-10,0.8-12.3c0.6-1.1,1.3-3.4,1.6-5.1c0.7-4.3,4.1-6.7,9.9-6.9 l4.6-0.2l-0.3-5.6c-0.3-5,0-5.9,2.1-7.9c1.3-1.2,3.3-2.7,4.5-3.3c2.6-1.3,3.1-4.2,1.6-9.7c-1.5-5.2-3.2-6-6-2.6 c-2.6,3.3-4.6,2.7-6.5-1.9c-1.6-3.8-2.9-4.2-3.7-1.2c-0.3,1.2-2.4,4-4.8,6.3s-4.2,4.7-4.2,5.4c0,0.6-0.7,1.2-1.4,1.2 s-1.4,0.6-1.4,1.4c0,2.8-2.4,1.3-4-2.4c-1.8-4.2-2.1-8.9-0.7-9.8c0.5-0.3,0.9-1.4,0.9-2.5s0.4-1.6,0.9-1.3s0.9-0.1,0.9-0.9 c0-0.8-1.1-1.7-2.6-2.1c-3.7-0.9-4.6-1.9-5.4-5.7c-0.3-1.9-1.3-4.3-2-5.5c-0.9-1.4-1.2-3.3-0.8-5.9c0.4-2.6,0.1-4.7-0.8-6.7 c-0.8-1.6-2.1-5.2-2.9-8c-0.8-2.8-2.9-7.3-4.7-10c-3.4-5.1-4.1-7.4-2.2-7.4c1.6,0,3.6-3,3.6-5.3c0-1.1,1.2-3,2.7-4.3 c3.1-2.6,5.1-6,4.3-7.3c-0.8-1.3,3.9-7.1,7.6-9.3c2.7-1.6,3.2-2.4,3.2-5.1c0-1.8,0.6-3.7,1.4-4.4s1.4-1.7,1.4-2.3c0-1.8,5.7-7,7.7-7 c0.9,0,1.7-0.5,1.7-1.2c0-0.7,0.8-1.9,1.9-2.8c3.8-3.2,2-6.3-3.8-6.3c-1.5,0-3-0.5-3.3-1c-0.4-0.6-2-0.8-4.2-0.4 c-2.2,0.4-4.4,0.2-5.7-0.5c-1.8-0.9-2.3-0.9-3.4,0.6c-0.7,0.9-1.2,3.2-1.2,4.9c0,4.5-2,5.7-7.4,4.7c-4.3-0.8-7.9,0.2-12.3,3.5 c-0.8,0.6-3.5,1.8-6.1,2.7s-5.4,2-6.3,2.5c-2.1,1.1-10.7-0.8-14.1-3.1c-1.4-1-2.9-3.1-3.3-4.8c-0.5-1.8-1.7-3.5-3.2-4.2 c-1.3-0.6-4-2.9-5.9-5c-4.1-4.5-6.1-4.3-6.1,0.5c0,2.1,0.7,3.9,2,5.1c1.8,1.7,1.9,2.2,0.9,5.9c-0.6,2.2-1.4,5.2-1.6,6.6 c-0.3,1.4-1.2,3.2-2.1,4c-1.5,1.3-1.8,1.3-2.8,0.1c-0.7-0.8-1.7-1.4-2.3-1.4c-2.1,0-9-8-9-10.3c0-3.2-13.6-16.8-16.8-16.8 c-2.3,0-8,2.3-8.7,3.4c-0.7,1.3,1.1,16.4,2.1,17.7c0.7,0.8,0.6,2.1-0.3,4.2l-1.3,3l-3-2.5c-2.9-2.5-3.8-5.4-2-6.5 c1.2-0.8,1.2-4.9,0-5.6c-0.5-0.3-0.9-2-0.9-3.7s-0.6-3.6-1.4-4.2c-0.8-0.6-1.6-2-2-3.2s-1.3-2.9-2.2-3.9c-2.4-2.7-4-12.8-2.7-16.7 c2.3-6.8,5.6-9.1,8.2-5.8c1.7,2.1,2.8,1.7,2.8-0.9c0-1.3,1.3-3.8,2.8-5.5s2.8-4.1,2.8-5.2c0-1.3,1.5-3,4-4.8c7.4-5.3,11-8.7,11-10.3 c0-0.9,0.6-2.1,1.4-2.8c0.8-0.6,1.4-2.2,1.4-3.5c0-1.6,1.3-3.6,3.8-5.9c2.1-2,3.8-4.4,3.8-5.4c0-2.3,4.1-5.3,8.6-6.1 c2.8-0.5,3.6-1.2,4.5-3.6c1.5-4.3,1.3-6.7-0.9-9c-1.7-1.8-1.7-2.1-0.3-2.1c1.3,0,1.5-0.7,1.1-3.8c-0.6-4.2-2.9-7.4-5.4-7.4 c-2.1,0-4.7-2.9-4.7-5.3c0-1.1-0.8-3-1.9-4.3c-1-1.3-1.9-2.8-1.9-3.4s-0.6-1-1.3-1c-0.7,0-1.8-0.7-2.5-1.4s-1.7-1.2-2.4-1 c-1.5,0.6-2.9-1-3.7-4.4c-0.4-1.4-1.9-3.3-3.4-4.2c-3-1.8-3.4-3.2-1.3-4.9c1.7-1.4,1.8-3.9,0.3-5.4c-1.6-1.6-3.6-1.4-3.6,0.3 c0,2-1.2,1.8-2.6-0.5c-0.6-1-1.8-1.9-2.5-1.9s-1.7-0.7-2.2-1.6c-0.6-1-1.5-1.3-2.5-0.9c-1.2,0.5-1.5,1.2-1,3.2 c2.1,8.3,1.4,10.5-3,10.5c-5.2,0-11.4,9.6-11.5,17.5c0,1.9-0.8,3.7-2.1,4.9c-1.1,1.1-1.8,1.9-1.4,1.9c0.7,0-2.9,6.8-6.4,11.9 c-1.9,2.9-2.2,4.1-1.8,8.2c0.6,5.7,0.3,6.3-5,8.9c-3.1,1.6-4.4,1.8-5.3,1c-1-0.8-2.1-0.8-4.6,0.1c-2.9,1.1-3.5,1-5.3-0.6 c-1.6-1.5-1.9-2.4-1.3-5.6c0.3-2.1,0.9-4,1.3-4.3c0.4-0.3,1-1.4,1.3-2.5c0.4-1.1,2.1-3,3.8-4c2.4-1.5,3.4-2.8,3.8-5.4 c0.3-1.9,1.2-4.4,1.9-5.5c0.7-1.1,1.3-3.5,1.3-5.3s0.4-3.5,0.9-3.8c1.5-0.9,4.7-8.1,4.7-10.5c0-1.4,0.6-2.2,1.5-2.2 c0.8,0,3-1.5,4.7-3.3c3.1-3.3,4.1-6,2.2-6c-0.5,0-0.9-0.6-0.9-1.3c0-0.7-0.6-1.8-1.4-2.5c-2.2-1.8-1.7-5.3,1.4-8.8 c3.4-3.9,3.6-5.3,0.6-5.3c-2.1,0-2.3-0.4-2.2-4.5c0-3.8,0.7-5.3,4-9.6c2.2-2.8,5.7-6.8,7.8-8.8c3.8-3.7,4.5-6.6,1.8-8.2 c-0.9-0.6-0.8-1.4,0.5-3.7c1.9-3.4,1.9-3.4-1.3-3.8c-3.2-0.4-6.4,2.5-6.4,5.7c0,1.7-2.5,5.3-8.3,12c-4.6,5.3-9.3,11.6-10.5,14 s-3.5,5.1-5,5.9c-1.6,0.9-3.1,2.8-3.8,4.7c-1.1,3.4-2.2,3.8-7.4,2.5l-2.6-0.7l0.2,7.5c0.2,8.4-0.3,9.3-7,13 c-2.9,1.6-3.8,1.8-5.4,0.8c-1.3-0.8-2.3-0.9-3.1-0.2c-6.3,4.6-6.1,4.6-8.1,2.8c-2.2-2-1.6-3.8,2.4-7.2c2.4-2.1,2.9-3.2,2.6-5.7 c-0.2-1.7-1-3.5-1.8-4.1s-1.4-1.7-1.4-2.6c0-2.5-3.1-1.7-6.8,1.7c-3.9,3.7-4.6,3.9-6.2,1.9c-0.9-1.1-0.4-2.4,2.6-6.7 c2-3,3.5-5.9,3.3-6.5c-0.2-0.6,0.2-2.3,1-3.8c0.8-1.5,1.4-3.3,1.4-3.9c0-0.7,1.3-1.2,3.1-1.2c1.7,0,3.9-0.6,4.9-1.4 c2.3-1.8,3.4-1.8,2.7,0c-0.9,2.4,3,1.7,7.5-1.4c5.5-3.7,8.1-3.7,8.1,0c0,3.5,1.7,3.6,4.7,0.5c1.2-1.3,2.8-2.3,3.4-2.3 c0.7,0,1.8-1.4,2.5-3.1c1.3-3.1,9.8-11,11.8-11c0.6,0,2.6-1,4.6-2.1s4.3-2.6,5.4-3.1s2.1-2.2,2.3-3.7c0.6-3.6,2.9-6.9,4.8-6.9 c1.6,0,3.3-1.7,5.4-5.5c1.1-1.9,1.1-2.4,0-3c-1-0.6-0.9-1.1,0.6-2.2c1-0.8,2.5-1.4,3.3-1.5s2.6-1.1,4-2.3c2.2-2,2.4-2.5,1.5-4.1 c-1.4-2.3,0.1-4.4,3.7-5.2c4.3-1,6.7-3.7,6.7-7.4c0-3.8-1.5-4.3-5.9-2c-2.5,1.3-2.6,1.3-2.6-1.4c0-3.6-2.1-4.4-6.2-2.4 c-3.5,1.7-4.1,4-1.6,5.8c1.4,1,1.5,1.5,0.5,3.1c-0.6,1.1-1.2,2.5-1.2,3.2c0,0.7-1.7,2.6-3.7,4.2c-2.9,2.3-4.6,3-7.8,3 c-2.2,0-4.6,0.5-5.2,1.2c-0.9,0.9-1.3,0.8-1.7-0.8c-0.4-1.4-1.3-2-3.3-2c-1.5,0-2.7,0.3-2.7,0.8c0,0.5-1,0.9-2.2,0.9s-2.6,0.5-3.2,1 c-0.7,0.7-3.1,0.7-8.3,0c-5-0.7-7.6-0.7-8.3-0.1c-2.6,2.6-6.1-1.8-5.5-6.8c0.3-2.6,0.3-2.6,5.9-2c5.4,0.6,5.6,0.6,5.6-1.6 c0-1.4,1.2-3.2,3.3-4.8c1.8-1.4,3.3-3.3,3.3-4.1s-1.8-3.1-4-5c-3.8-3.4-4.2-4.6-1.5-5c2.7-0.4,2-2.1-1.5-3.9 c-4.1-2.1-5.2-3.9-2.9-4.8c0.9-0.3,1.5-1.7,1.5-3.3c0-2.5,0.3-2.7,3.6-2.7c2.3,0,4.3-0.7,5.6-1.9c1.1-1,3-1.9,4.2-1.9 c2.1,0,6.6,3.4,7.6,5.8c0.4,0.9,0.9,0.7,2.2-0.7c0.9-1.1,2.5-2.2,3.4-2.6c1.4-0.5,1.5-0.9,0.6-2.1c-0.6-0.8-1.7-1.4-2.3-1.4 s-1.7-0.6-2.3-1.4s-2.5-1.4-4.2-1.4c-5.7,0-10.7-6.5-6.1-8c1-0.3,1.9-1,1.9-1.5c0-1.1,5.8-1.1,8.7,0c1.3,0.5,3.8,0.5,5.7,0.1 c2-0.5,3.4-0.4,3.4,0.1c0,2.5,3,1.5,6.1-1.9c2.7-3,4.1-3.8,6.6-3.8c1.7,0,3.2-0.4,3.2-0.9s-0.5-0.9-1.1-0.9c-0.9,0-0.9-0.2,0-1.1 c1.9-1.9,1.3-2.5-3.3-3.2c-2.4-0.4-4.8-0.8-5.2-1.1c-0.4-0.2,0.6-1.9,2.1-3.7c1.6-1.8,3.7-5.1,4.8-7.4c2-4.3,4.2-5.7,7.4-4.7 c2.3,0.7,2.4-0.3,0.3-3.2c-1.5-2.2-1.5-2.3,2.1-5.4c2-1.7,4.3-3.1,5.1-3.1c0.8,0,2-0.4,2.8-0.9c1.1-0.7,1.1-1.1,0.1-2.3 c-0.7-0.9-1-2.4-0.6-3.8c0.5-1.9,0.2-2.4-1.1-2.4c-1,0-2.1,0.3-2.4,0.7s-1.1,0.8-1.6,0.8c-0.5,0.1-1.2,0.2-1.7,0.2 c-0.5,0.1-1.3,1.4-1.8,2.9c-0.6,1.8-2.1,3.2-4.1,4.1c-1.7,0.7-3.9,2.4-4.7,3.7c-2.1,3.1-9.8,4.1-10.6,1.3c-0.4-1.1,0.1-2.2,1.3-3 c1-0.7,2.1-2.7,2.4-4.4c0.4-2.3,1.3-3.5,3.6-4.5c3.5-1.6,4.6-3.7,1.8-3.7c-1,0-2.2-0.4-2.5-0.9c-1.1-1.7-4.2-1-5.7,1.4 c-2.1,3.2-3.2,2.9-3.2-0.9c0-4.5-1.4-4.9-5.2-1.5c-3.5,3.1-5.8,3.1-4.1,0c0.9-1.6,0.6-1.8-2.3-1.8c-2.6,0-3.1-0.3-2.8-1.7 c0.2-0.9-0.4-2.4-1.5-3.4c-1.1-1-1.9-2.7-1.9-3.8s-0.4-2.4-0.8-2.9c-0.4-0.5-1.5-2.9-2.3-5.3c-1.4-4.1-1.4-4.5,0.3-6 c2.5-2.2,2.3-4.3-0.3-4c-5.2,0.4-7-0.3-11.3-4.5c-3.2-3.2-4.4-5.1-4.4-7c0-1.5-0.5-3.5-1.2-4.5c-1-1.6-0.9-2.1,0.9-3.3 c1.1-0.8,2.2-2.4,2.3-3.5c0.3-2.4,3.6-3.5,3.6-1.2c0,2.2,2.8,6.1,4.4,6.1c1,0,1.3-0.8,1-2.8c-0.3-1.9,0-2.8,0.9-2.8 c2.1,0,2.5-2.7,0.8-4.7c-1.4-1.5-1.5-2.3-0.5-5.1c0.6-1.8,1.5-3.3,1.9-3.3c1.2,0,2.8,3.3,2.8,5.9c0,1.3,0.7,2.9,1.5,3.5 c0.8,0.7,1.9,2.2,2.3,3.4c1.3,3.4,7.4,2.1,7.4-1.6c0-1,0.4-2,0.9-2.3c0.5-0.3,0.7-3,0.4-6.1l-0.5-5.5l3.3-1.2c1.8-0.7,3.3-1.5,3.3-2 c0-0.4,1-0.7,2.3-0.7c1.9,0,2.5,0.7,3.3,4c0.6,2.2,1.6,4.4,2.2,4.9s1.2,1.1,1.3,1.4s0.6,1.7,1.1,3.3c1,2.7,0.9,4.9-0.5,9.8 c-0.4,1.3-1,4.4-1.3,6.8c-0.4,2.5-1.2,5-1.8,5.6c-0.6,0.6-1.1,1.9-1.1,2.8c0,2.9,4,2.1,5.8-1.1c0.9-1.5,2.1-2.8,2.8-2.8 s1.6-0.9,2.2-2s1.5-2.2,2.1-2.4c2-0.6,1.3,2.3-1.3,5.4c-2.2,2.6-2.5,3.9-2.8,10.4c-0.2,5.8,0,7.6,1.1,8.2c0.9,0.5,1.5,2.5,1.6,5.6 c0.1,2.7,0.5,5.1,0.8,5.4c0.3,0.3,2.2,0.1,4.2-0.4s5-1,6.7-1c1.7,0,3-0.5,3-1.1c0-2.2,5-6.4,7.7-6.4c3,0,3,0,1.5-3.2 c-1.2-2.7-3.3-3-6-1c-2.5,1.9-4.5,1.8-6.4-0.3c-1.4-1.5-1.4-2.3-0.4-6.2c1-3.6,1-4.6,0-4.9c-1.6-0.5-1.5-5.1,0.2-8.9 c0.7-1.7,1.8-4.4,2.5-6.1c1.4-3.8,2.6-3.8,5.8,0c1.9,2.3,2.8,2.8,3.6,2c1.7-1.7-0.6-11.3-2.9-12.1c-2.2-0.7-2.4-2.2-0.4-2.9 c0.8-0.3,1.4-1.1,1.4-1.7s0.8-1.9,1.9-2.9c2.4-2.1,2.4-3.9,0.1-4.5c-1.7-0.4-1.7-0.7-0.5-5c0.7-2.5,1.6-6.2,2.1-8.3 c0.7-3.5,0.9-3.7,4-3.6c1.8,0.1,4.2,0.4,5.4,0.8c1.7,0.6,2.3,0.2,2.9-1.6c0.5-1.2,1.5-2.8,2.3-3.5c2.2-1.9,5.3,0.2,5.3,3.6 c0,1.7,0.7,3.2,2,4.1c2.5,1.7,3.9,1.1,3.1-1.5c-0.4-1.2-0.3-1.7,0.4-1.3c1.8,1.1,5.8-0.5,5.8-2.4c0-2.6,3.5-2.3,3.9,0.3 c0.2,1.7,1,2.2,4.2,2.4c3.7,0.3,3.9,0.2,4.4-2.8c0.6-3.9-3.3-8.6-6.5-7.8c-1.5,0.4-2,0.1-1.9-1.1c0.1-1.2-0.7-1.7-3-1.9 c-2.5-0.2-3-0.6-2.4-1.9c0.4-0.9,0.9-3.5,1.1-5.8c0.6-5.9,1.9-7.3,4.4-4.5c1.1,1.2,3,2.7,4.2,3.4c2,1.1,2.4,1.1,3.5-0.4 c2.2-3,0.8-13.8-2.4-19.9c-0.8-1.5-0.8-2.6-0.1-3.9c1.3-2.4,2.5-2.4,3.1,0c0.5,2,4.4,2.7,4.4,0.8c0-0.7,0.5-0.7,1.4,0.1 c1.4,1.2,9.4,1.6,10.5,0.5c0.3-0.3,0.1-1.1-0.5-1.7c-1.7-1.7-1.5-14.8,0.2-14.8c0.7,0,1.5-0.6,1.8-1.4c0.3-0.8,1.2-1.4,2-1.4 c0.8,0,1.4-0.6,1.4-1.3c0-0.7,0.8-1.6,1.9-1.9c2.3-0.7,2.4-2.1,0.4-4.3c-2.2-2.4-1-7.4,1.9-7.4c2.3,0,6.2-3.6,6.2-5.7 c0-0.8,0.6-2.2,1.2-3.1c0.9-1.3,1.7-1.5,3-0.8c1,0.5,3.2,1.6,4.9,2.5c1.7,0.9,3.9,1.6,4.8,1.6c0.9,0,2.6,1.4,3.6,3.1 c1.1,1.7,2.8,3.9,3.8,4.8c1,0.9,1.9,2.5,1.9,3.5c0,3,3.4,2.1,4.1-1.1c0.9-4.3,5-3.9,9.4,0.9c3.8,4.2,4.8,4.5,7.3,2.2 c1.4-1.2,1.7-1.3,1.7-0.2c0,0.7,0.8,1.8,1.7,2.4c2.2,1.4,10.5,1.4,10.5,0.1c0-0.6,1.2-0.7,3-0.4c2.3,0.5,3.5,0.1,5.2-1.5 c2.1-2,2.2-2,2.2-0.2c0,1.3,1.2,2.3,4.6,3.4c6.4,2.3,12,2.1,16.4-0.6c2.9-1.8,4.5-2.1,8-1.7c2.4,0.3,4.7,1,5.1,1.7s1.8,1.3,3.1,1.3 s3,0.6,3.8,1.4c1.7,1.7,5,1.9,5,0.3c0-0.6-0.9-2.1-2-3.3c-2-2.1-2-2.2-0.3-4c1.9-2.1,3.3-1.7,3.3,1c0,1.6,0.7,1.8,6,1.8 c4.5,0,6.1,0.4,6.5,1.4c0.3,0.9,1.8,1.4,4.1,1.4c4,0,6.7,1.2,5.1,2.3c-0.6,0.4-1,1.4-1,2.3c0,0.9-2.1,4-4.8,7 c-3.7,4.1-4.7,5.9-4.5,7.9c0.2,2.1,0.8,2.7,2.9,2.9c2.2,0.3,2.5,0.6,2,2.3c-0.4,1.1-1.6,3.3-2.9,4.9c-1.2,1.6-2.2,3.4-2.2,4 s-2.8,3.1-6.1,5.7c-4.8,3.6-7.2,4.8-11,5.3c-4.4,0.6-5.6,1.3-11.9,7.4c-4.4,4.2-9.4,7.9-13.1,9.7c-3.4,1.7-8,4-10.3,5.2 c-2.3,1.2-5,2.5-5.9,2.8c-1,0.3-2,1.4-2.2,2.4s-2,2.5-3.9,3.4c-1.9,0.8-4.7,2-6.4,2.7c-2.4,1-3.1,2-3.6,5.3c-1,5.7-2.3,7.4-5.8,7.4 c-3.8,0-4.7,1.4-2.5,3.9c1.4,1.5,2.4,1.8,5.6,1.3c2.9-0.4,4.3-0.2,5.3,0.9c2.3,2.3,5.4,1.7,8.9-1.6c2.1-2,3-2.5,2.6-1.3 c-0.3,0.9-0.6,2.1-0.6,2.5s-6.4,6.8-14.3,14.2s-14.4,13.9-14.6,14.7c-0.2,1,0.8,1.2,4,1.1c2.4-0.1,4.8,0.3,5.4,0.9 c2.5,2.5,12.8,0.8,17.6-2.8c1.9-1.5,3.6-1.7,9.8-1.5c7.2,0.3,7.5,0.2,7.8-1.8c0.3-1.9,0.9-2.1,5.2-2.3c8.7-0.3,10.2,0.2,13.3,3.5 c1.6,1.7,4.4,3.8,6.3,4.6c1.9,0.8,3.7,1.9,4,2.4c0.7,1.2,6.3,1.3,7.6,0.1c2.4-2.2,6.8-2.8,10.9-1.4c2.2,0.8,4.5,1.8,5,2.3 c0.5,0.5,1.8,0.9,2.9,0.9c1.1,0,3.3,0.6,4.7,1.4c1.5,0.8,3.4,1.4,4.3,1.4c0.9,0,1.8,0.4,2.1,0.8c0.3,0.4,3.5,1.3,7.2,2 c5.2,1,7.1,1,8.5,0.1c1.5-0.9,2.5-0.8,5.5,0.8c4.4,2.3,6,2.4,7.6,0.4c1.5-1.8,5.1-1.4,5.1,0.5c0,2.1,2.5,5,5.4,6.3 c1.6,0.7,2.6,1.9,2.6,3c0,1,0.4,1.9,0.9,1.9s0.9,0.6,0.9,1.4s0.5,1.4,1,1.4c2.4,0,3.7,2.8,3.7,7.9c0,4.2,0.3,5.2,1.5,5.2 c1.2,0,1.3,0.3,0.4,1.4c-0.6,0.8-0.9,2.1-0.6,2.9c0.4,1-2.6,4.5-9.7,11.5c-5.7,5.5-10.3,10.5-10.3,11s-1.1,2.4-2.4,4.2 c-3.6,4.9-5.3,9.4-4.8,13.2c0.5,3.6-1,6.4-7.9,14.9c-4.1,5-5.5,7.7-5.5,10.1c0,5.4-10.7,17.3-19,21.1c-2.8,1.3-3.7,2.4-4.6,5.6 c-0.6,2.2-2.3,5-3.8,6.4c-1.8,1.6-2.6,3.2-2.5,4.7c0.3,3.1-4.6,9.2-7.9,9.9c-1.4,0.3-3.2,1.3-4.1,2.3c-0.9,1-2.1,1.8-2.8,1.8 s-2.3,1.2-3.8,2.7c-2.4,2.5-2.8,2.6-4.5,1.4c-2.4-1.7-5.2-1.7-7.4,0c-1.8,1.3-1,2.5,2.4,3.7c2,0.7,2.2,4.7,0.2,6.3 c-0.8,0.6-1.4,2.2-1.4,3.4c0,2.7,3.9,6.9,6.4,6.9c1,0,3.3,1.9,5.2,4.1l3.4,4.1l-4,2.9c-2.2,1.6-5,3.2-6.3,3.4 c-1.3,0.3-3.9,1.1-5.9,1.8c-3.3,1.2-3.7,1.1-6.2-1c-4-3.4-7.8-3-13,1.4c-2.4,2-5.3,3.9-6.5,4.3c-1.2,0.4-2.9,2.2-3.8,4.1 c-1.5,3.2-2,3.5-6.8,4.1c-13.4,1.7-14.2,2.3-9.6,6.6c1.8,1.7,4.1,2.6,7.5,3.1c2.7,0.4,5.4,1.2,6,2c0.6,0.7,1.6,1.3,2.3,1.3 c0.7,0,1.4,0.5,1.6,1.2c0.3,0.8,2.5,1.1,7.2,1.1c6.3-0.1,7-0.3,8.8-2.7c6.1-7.9,6.5-8.2,8.5-7.6c1.1,0.3,3.4,0.8,5.2,1.1 c3.5,0.5,9.4,5.7,9.4,8.2c0,0.8,0.6,1.5,1.3,1.5c2.6,0,7.2,3.1,11.1,7.4c4.6,5.1,7.7,7,10.2,6.4c1-0.3,2.4,0.3,3.4,1.4 c0.9,1,2.4,1.6,3.3,1.4c1.3-0.3,1.6,0,1.3,1.7c-0.2,1.3,0.3,2.7,1.4,3.7c1,0.8,1.8,2.4,1.8,3.5c0,1.1,0.6,3.2,1.4,4.6 s1.9,4.9,2.5,7.6c0.6,2.7,1.9,5.6,2.8,6.4c1,0.8,2.3,2.5,3,3.8c0.7,1.5,2.2,2.5,3.9,2.8c2.5,0.4,2.8,0.9,3.1,4.2 c0.2,3,1.2,4.6,4.6,8.2c4.8,4.9,4.6,4.3,5.5,16.9c0.5,7.5,0.3,9.6-0.9,11.5c-1.9,2.9-1.9,7,0,9.7c1.4,2,1.4,2.3,0,3.8 c-1.8,2-1.9,5.4-0.2,8.4c0.7,1.2,1.1,3,0.8,3.9c-0.3,1.1,0.2,1.8,1.2,2c1.6,0.3,1.6,0.4,0,2c-1.8,1.8-1.9,3.3-0.9,9.8 c0.4,2.6,1.4,4.6,2.9,5.8c1.9,1.5,2.3,2.6,2.2,6.8c-0.1,7.4,0,8.3,0.7,8.3c0.4,0,0.7,4.1,0.8,9.1s0.4,11.5,0.8,14.3 c0.7,6.1,4,13.2,6.4,13.8c1.9,0.5,2.2,1.8,0.6,2.3c-1.2,0.4-0.3,5.4,0.9,5.4c0.4,0,3,2.1,5.8,4.7c2.8,2.6,6.2,5,7.6,5.3 s3,1.1,3.6,1.8s1.9,1.3,2.9,1.3c2.1,0,10.5,6.3,13.7,10.4c1.2,1.5,2.8,2.7,3.5,2.7c1.9,0,7,7.3,7,10c0,1.2,0.4,2.2,0.9,2.2 c1.4,0,3.5,4.6,4.2,9.4c1.5,9.3,3.3,13.8,6.6,16.4c2.6,2,3.2,3,3,5.5c-0.1,1.7-0.6,3.3-1.1,3.6c-1.3,1,0.2,5.5,1.9,5.5 c0.8,0,2.7,0.9,4.2,2l2.7,2l-2.7,3.1c-1.5,1.7-3,4.5-3.4,6.1c-1.1,5.2,1.3,18.6,4.7,25.8c1.7,3.6,3.4,7.2,3.7,8s1.4,2.7,2.4,4.2 s1.8,3.4,1.9,4c0,0.7,1.5,3.3,3.3,6c1.8,2.6,3.3,5.5,3.3,6.4s0.2,3.1,0.5,4.8c0.5,3.1,0.5,3.1-0.7,0.9c-0.7-1.2-2.7-3.1-4.5-4.1 c-2.7-1.5-3.8-1.6-6.5-0.8c-4,1.2-5.2,0.6-10.3-5.4c-2.2-2.6-4.6-4.8-5.3-4.8c-1.8,0-2.5,2.4-1.5,4.9c1.4,3.4,8.5,11.4,10.7,12 c1.2,0.3,2.9,2.3,4.2,4.9c1.2,2.4,2.6,4.4,3,4.4s0.9,0.8,0.9,1.7c0,2.4,2.7,4.6,6.1,5c3.8,0.4,5.4,5,3.6,10.3 c-0.8,2.4-0.9,4.3-0.4,5.7c0.5,1.2,1.5,4.6,2.4,7.6c1.5,5.3,3.7,7.7,5.1,5.4c1.2-2,1.9,1.5,1.9,10.1c0,7.2-0.3,8.6-2.4,11.6 c-1.3,1.9-2.8,3.5-3.3,3.5c-3.1,0-21.5,15-21.5,17.5c0,0.7-0.7,1.3-1.5,1.3c-2.5,0-1.1,3.1,1.8,3.9c3.5,0.9,8.1,5.3,8.1,7.8 c0,3.1,2.3,5.2,5.3,5.2c1.6,0,3.4,0.6,4,1.4s1.9,1.3,2.7,1.2s2,0.1,2.7,0.5c0.7,0.5,1.4,0.2,1.7-0.7c0.3-0.8,0.9-1.2,1.3-1 s1,0,1.4-0.5c0.3-0.5-0.1-1.2-0.9-1.5c-1.3-0.5-1.3-0.8,0.4-1.9c1.1-0.7,1.9-1.8,1.9-2.4c0-0.6,0.7-2.6,1.6-4.6 c1.2-2.6,2.2-3.6,3.8-3.6c1.3,0,2.1-0.6,2.1-1.5c0-1.1,0.5-1.4,2.1-0.9c1.2,0.3,4.1,0.9,6.6,1.2c3.4,0.4,4.5,0.3,4.5-0.7 c0-0.9,0.3-0.9,1.2,0.2c1.7,2.1,11,3.1,11,1.1c0-1.1,0.8-1.3,3-0.9c1.7,0.3,5.3,0.7,8.1,1c2.8,0.3,7.2,1.6,9.8,2.9s5.5,2.3,6.4,2.3 c3,0,6.5,2.1,6,3.6c-0.6,1.6,1.2,4.1,2.4,3.4c0.5-0.3,0.8,0.2,0.9,1.2c0,2.5,2.3,5,4.5,5c1.2,0,2,0.6,2,1.4c0,0.8,0.4,1.4,0.9,1.4 s1.2,1.1,1.5,2.3c0.4,1.5,1.3,2.3,2.3,2.3c1.1,0,2,0.9,2.3,2.3c0.3,1.3,1.2,2.3,1.9,2.3s1.3,0.6,1.3,1.3c0,0.7,1.3,2.2,2.8,3.3 c1.5,1.1,2.8,2.6,2.8,3.4s0.6,1.6,1.4,1.9c1,0.4,1.4,1.9,1.4,5.4c0,3.4,0.5,5.4,1.7,6.7c2.5,2.7,2.5,19.1,0,23.6 c-1,1.7-1.7,4.3-1.7,5.8c0,1.5-0.6,3.2-1.3,3.8c-0.7,0.6-1.9,2.4-2.5,4.1c-0.7,1.7-2.4,4.5-3.9,6.4c-1.9,2.4-2.9,5.2-3.7,9.8 c-0.6,3.5-1.5,7.3-2.2,8.3c-0.7,1.1-1.5,3.1-1.8,4.6c-0.8,3.4-4.6,7.2-7.2,7.2c-1.4,0-4.5,2.5-9.4,7.5c-5.1,5.3-7.9,7.5-9.5,7.5 c-2.3,0-5.4,2.6-5.4,4.4c0,0.5,0.6,1.5,1.4,2.2c2,1.6,1.8,2.1-2.1,6c-6.5,6.5-17.6,9.6-18.7,5.2c-0.4-1.7-1-1.9-3.9-1.3 c-4.4,0.8-8.8,3.1-8.1,4.3c0.3,0.5,1.1,0.9,1.8,0.9c1.7,0,2.1,2.5,1.1,7c-0.5,2.1-0.9,5.5-1,7.7c-0.1,4.4-1.6,6.2-7.6,9.2 c-2.1,1-4.4,2.4-5.3,3.1c-1.3,1-2.4,1-6.4-0.4c-4.6-1.5-5.1-1.5-7.5-0.1c-1.4,0.9-3.5,1.5-4.6,1.5c-1.3,0-2,0.6-2,1.8 c0,1.4,0.9,1.9,4.1,2.4c2.8,0.4,4.9,1.5,6.8,3.5c2.7,2.8,5.4,4.4,11.6,6.5c3.3,1.1,7.5,6.2,7.5,9c0,2,2.6,2.7,5,1.4 c2.6-1.4,33.2-0.7,34.6,0.7c1.3,1.3-0.9,6.4-3.2,7.7c-1.5,0.8-1.7,2.1-1.7,9.8c0,4.9-0.4,9.1-0.9,9.4c-0.5,0.3-0.9,1.3-0.9,2.2 c0,0.9-1.2,2.8-2.6,4.2c-2.2,2.1-3.5,2.5-7.8,2.5c-3.1,0-5.9,0.6-7,1.4c-1,0.8-3.4,1.4-5.4,1.4c-4.6,0-10.3,3-13.3,6.9 c-1.9,2.4-2.4,4.2-2.4,8c0,3.3-0.4,4.8-1.2,4.8c-0.6,0-4.7-1.2-9.1-2.7l-7.9-2.7l-3.3,3.2c-4.7,4.6-7.6,5.6-18.3,6.4 c-11.3,0.8-11.9,1-17.8,6.4c-5.1,4.7-7.7,5.3-10.3,2.5c-0.9-1-2.6-1.9-3.8-1.9c-1.1,0-2.6-0.7-3.3-1.4c-1.7-2.1-10.8-6.1-13.9-6.1 c-1.4,0-3.1,0.5-3.6,1c-1.5,1.5-4.5-0.4-6-3.8l-1.2-2.8l-22.4,0.2l-22.4,0.2l-2.6,3.2l-2.6,3.2l-4.9-4.8c-3-3-5.7-4.8-7.1-4.8 c-1.2,0-3.1-0.4-4.3-0.9c-1.2-0.5-4.6-1.1-7.5-1.5c-4.4-0.5-6-1.2-9.5-4.3c-2.3-2-5-3.7-6-3.7c-2.3,0-4,1.8-4,4.1 c0,1.9,4.3,7.1,5.9,7.1c0.5,0,2.8,0.9,5.2,2c7,3.2,9.3,10.2,3.4,10.2c-2.3,0-4.6,2.3-5.6,5.5c-0.5,1.7-1.1,2.1-2.7,1.7 c-1.1-0.3-3.9-0.6-6.2-0.6c-3.9,0-4.7-0.5-10.7-6.1c-5.4-5.1-7-6.1-9.8-6.1h-3.3l2.1-2.3l2.1-2.3l-4-2.9c-2.2-1.6-5-2.9-6.1-2.9 s-2.4-0.4-2.8-1c-0.4-0.7-1.4-0.5-2.9,0.5c-1.3,0.8-2.6,1.3-3.1,1c-0.4-0.3-3.4-0.6-6.7-0.7c-5.4-0.2-6.1,0-8.1,2.4 c-1.8,2-2,2.9-1.1,3.9c0.9,1,0.7,1.7-0.6,3.2c-0.9,1-2.2,1.9-2.9,1.9c-0.7,0-1.3,0.6-1.3,1.4c0,1.7-5.6,2-7.2,0.4 c-2.6-2.6-9.4-5.7-13.1-6.1c-1.6-0.1-4.7-1.2-6.9-2.2c-2.1-1.1-5.3-2.2-7.1-2.4c-2.7-0.3-3.2-0.1-3.2,1.4c0,1-0.6,2-1.3,2.3 c-1.9,0.7-5.2-0.3-5.2-1.6c0-1.5-12.8-13.8-17.5-16.8c-2.1-1.4-5-2.8-6.3-3.1c-1.3-0.3-2.7-1-2.9-1.4c-0.7-1.1-4.8-1.1-5.5,0 c-0.8,1.2-7.2,1.8-9.8,0.9c-1.4-0.5-2.7-0.5-3.4,0.2c-0.7,0.6-3.7,0.8-7.6,0.4c-6.3-0.6-6.5-0.5-9.2,2.3c-1.5,1.6-3.5,2.9-4.4,2.9 s-1.9,0.4-2.3,1c-0.4,0.6-1.8,0.7-3.4,0.4c-2.5-0.6-3.3-0.1-7.3,4.2c-4.6,4.9-6.6,9.7-4.8,11.6c1.7,1.7,1.2,2.5-1.8,2.5 c-2.2,0-3,0.6-3.8,2.4c-1.1,2.8-0.5,4.1,1.8,4.1c2.4,0,3.1,1,1.8,2.6c-0.6,0.7-1.6,2.2-2.1,3.3c-0.6,1.2-2.5,2.4-4.9,2.9 c-4.8,1.2-9.7,5.6-9.7,8.8v2.3l-8.2-0.7c-4.5-0.4-8.6-0.9-9-1.2s-0.5-1.5-0.2-2.8c1.1-4.4-4.2-8.8-10.6-8.8c-2.6,0-4.1-0.7-6.3-3 c-1.6-1.7-2.8-3.8-2.7-4.7c0.4-2.6-2-2.9-5.7-0.8c-2.5,1.5-3.3,1.6-3.3,0.6c0-0.7-1.2-2.3-2.7-3.6c-3-2.5-12.4-4.3-14.4-2.7 c-1.5,1.2-9.9,2-10.6,1c-0.3-0.5-1.7-0.8-3.2-0.8c-1.5,0-2.9-0.5-3.1-1.2c-0.3-0.9-0.7-0.9-2,0.1c-1,0.8-1.6,0.9-1.6,0.2 c0-0.6-1.6-1.1-3.8-1.1c-2.8,0-3.8,0.4-3.8,1.5c0,0.8-0.6,2.1-1.4,2.9s-1.2,2.2-0.9,3.1c0.3,0.9-0.2,2.3-1.3,3.2 c-1.5,1.4-2.1,1.4-3.8,0.4c-1.7-1.1-2.4-1-4.9,0.4c-1.6,0.9-3.9,1.6-5.2,1.6c-1.3,0-2.5,0.7-2.9,1.6c-1.2,3.5-3.2,4.8-6.4,4.3 c-3.9-0.6-5.3,1.6-5,7.8c0.2,3.7-0.1,4.6-2.4,6.4c-1.6,1.3-3.4,1.9-4.8,1.7c-1.6-0.3-2.6,0.2-3.8,2 C98.9,1185.4,97.4,1185.6,95.4,1183.4L95.4,1183.4z M143.6,636.4c-0.6-0.6-1.1-1.9-1.1-2.8c0-1-1.2-2.1-3.1-2.8 c-1.9-0.7-4.2-2.7-5.9-5.2c-2.2-3.2-3.2-4-5.1-3.8c-1.8,0.2-2.4,0.9-2.8,3.2c-0.4,2.5-5.6,9.7-7,9.7c-1.1,0-0.4-3.2,1-4.8 c1.7-1.9,1-3.6-1.5-3.6c-1,0-2-0.4-2.3-0.8c-0.5-0.8-10.7-0.6-11.6,0.3c-0.3,0.3-1.1-0.6-1.8-2c-0.9-1.8-1-2.8-0.2-3.7 c0.6-0.7,0.7-2.1,0.4-3.2c-0.4-1.3,0.1-2.8,1.8-4.8c2.3-2.8,2.4-4.5,0.3-7.3c-0.6-0.8-1.9-1-3.3-0.7c-3.8,0.9-6.7-2.6-6.7-8.1 c0-2.5-0.4-4.7-1-5.1c-0.5-0.3-0.7-1.5-0.4-2.5c0.3-1.1,0.1-4.4-0.6-7.4c-0.9-4.3-1.9-6.1-4.4-8.3c-1.7-1.5-3.8-2.8-4.6-2.8 s-2.7,1.5-4.3,3.3c-1.6,1.8-3.6,3.3-4.4,3.3s-3,1.3-4.7,2.8c-3,2.7-3,2.9-1.7,5.5c1.6,3.1,1,7.6-0.9,7.6c-0.7,0-3,0.5-5,1.2 c-2.9,0.9-3.7,1.6-3.7,3.3c0,3-1.7,5.8-3.5,5.8c-0.8,0-2.9-1.1-4.6-2.4c-3.5-2.7-8.8-4.1-8.8-2.4c0,0.7-0.7,0.9-2,0.5 c-1.1-0.3-2.5-0.7-3.2-0.8c-2.2-0.3-4.1-2.5-4.7-5.5c-0.3-1.6-1.3-3.8-2.2-4.7c-1.8-2.1-7.1-4.4-10-4.4c-3.4,0-4.5-2.2-4-7.9 l0.5-5.1l-3.4-1.8c-2-1.1-3.5-2.5-3.5-3.6c-0.1-1-0.2-2.8-0.2-4c-0.1-1.3-0.9-2.4-2-2.7c-1.2-0.3-1.9-1.3-1.9-2.8 c0-2.7-2.1-7-4.2-8.7c-1.9-1.6-0.3-3.8,2.9-3.8c1.2,0,2.2-0.5,2.2-1.1c0-0.7,0.4-0.7,1.4,0.1c1.6,1.4,3.3,0.5,3.4-1.7 c0-0.9,0.9-2.6,1.9-3.8l1.9-2.2l2.1,2c1.5,1.4,3.3,2,6.1,2c3.9,0,3.9-0.1,3.9-3.3c0-3.8,1.3-4.2,4.3-1.3c2.5,2.4,4.6,1.8,5.2-1.3 c0.5-2.5-2.6-6.3-5.2-6.3c-0.9,0-1.5-0.8-1.5-1.8c0-1-0.8-2.1-1.9-2.4c-3.5-1.1-1.5-5.6,2.9-6.6c2.4-0.5,3.4-0.2,5.5,1.8 c2.3,2.2,2.7,2.3,4.4,1.1c1-0.8,2.7-1.4,3.9-1.4s2.3-0.5,2.7-1c0.4-0.7,1.2-0.5,2.3,0.6c3.1,2.8,6.7,0.6,9.8-5.9 c0.8-1.7,1.9-2.8,2.4-2.5c1.6,1,6.2-5,6.8-9c0.5-3.1,1.1-4,3.3-4.8c2.3-0.8,2.8-1.6,3.3-5.5c0.7-5,1.8-5.8,8.1-5.9 c1.8,0,3.5-0.4,3.8-0.8c0.9-1.4,7,0.5,7.9,2.5c0.6,1.4,1.8,2,4.1,2.1c4.4,0.2,6.5-1.1,7.2-4.4c0.3-1.6,1.4-2.9,2.4-3.2 c1-0.3,2.2-1.5,2.7-2.7c1.5-3.8,3.2-4.7,6.3-3.2c1.5,0.7,4.5,1.9,6.7,2.5c3.5,1,4.2,1,5.8-0.5c1.4-1.2,3.4-1.7,7.3-1.7 c3.4,0,6.9-0.7,9.5-1.8l4.1-1.8l1.9,2c1,1.1,2.8,1.9,3.9,1.8c3.5-0.3,4.1,0,7,3c2.7,2.8,3.2,2.9,7.7,2.4c2.7-0.3,4.6-0.3,4.3,0 c-0.3,0.3,0.3,1.6,1.4,2.8c2.5,2.6,4.9,9.1,3.6,9.5c-0.5,0.2-0.9,1-0.9,1.9c0,0.9-0.6,2.4-1.4,3.4c-2.1,2.8-1.7,5.7,1,6.9 c2.6,1.2,2.9,2.6,1.3,6.2c-1.1,2.4-1,3.1,1.9,7.6c1,1.5,1.8,4,1.9,5.4c0,1.4,0.7,2.8,1.4,3.1s1.6,1.7,1.9,3.3c0.3,1.5,1.3,3,2.2,3.4 c4,1.4,5.9,4.3,5.9,8.9c0,3.6-0.5,5-2.4,6.9c-1.3,1.3-3.4,2.4-4.7,2.4s-3,0.4-3.9,0.8s-2.9,1.4-4.4,2.1c-3.6,1.7-6.1,5.9-4.5,7.5 c0.8,0.8,1.9,0.7,4.4-0.4c4.5-2.2,8.7-2.9,9.4-1.6c0.4,0.6,2.7,1,5.2,1c3.8,0,4.9,0.4,6.5,2.5c1.4,1.8,1.8,3.3,1.4,5.1 c-0.3,1.5,0,3.7,0.8,5.3c0.9,1.8,1.2,4.5,0.9,8c-0.3,3.3,0,5.8,0.7,6.6c1.2,1.5,0.3,4-2.2,6.1c-0.8,0.7-1.5,2.6-1.5,4.4 s-0.4,3.2-0.9,3.2s-0.9,0.6-0.9,1.3s-2.8,4.1-6.2,7.4c-6.7,6.5-11,8.4-12.9,5.7c-1.4-1.9-10.8-2.8-13.6-1.4c-1.2,0.6-2,2-2,3.4 c0,4.5-3.7,11-8.1,14.2c-2.3,1.7-4.7,3.1-5.3,3.1c-0.6,0-2,0.6-3,1.4C146.4,637.8,145.1,637.9,143.6,636.4L143.6,636.4z  M245.7,463.7c-3-3.1-3.1-3.5-3.5-12c-0.2-4.8-0.4-9.9-0.5-11.3c-0.3-5.2,8.9-13.5,12.3-11.1c0.8,0.6,2.1,1.3,2.9,1.6 c3.4,1.2,5.3,11.9,2.7,15.1c-0.8,1-0.7,1.7,0.6,3.1c0.9,1,1.8,2.8,1.9,4c0.1,1.2,0.5,2.8,0.9,3.6c0.4,0.9,0.1,1.7-0.9,2.1 c-0.8,0.3-1.5,1.6-1.5,2.9c0,4.6-0.8,5.3-6.5,5.3C249.3,466.9,248.5,466.6,245.7,463.7L245.7,463.7z M153,215.3 c-0.6-0.8-2.6-1.7-4.3-2s-3.7-1.2-4.3-1.9c-1.7-2.1-0.8-17.3,1.2-20.2c0.9-1.2,1.6-2.6,1.6-3c0-0.4,0.6-1.4,1.4-2.2 c0.9-0.9,1.4-3.2,1.4-6.6c0-4.4,0.3-5.3,1.8-5.7c1.6-0.4,1.8-1,1.3-4.5c-0.5-3.6-0.3-4.2,1.9-5.6c1.5-1,2.5-2.5,2.5-3.8 c0-2.4-3.5-9.8-4.7-9.8c-2.1,0-1.6-3.2,1-5.8c2.5-2.6,3.1-2.8,4.7-1.8c2.2,1.4,4.6,1.5,4.6,0.2c0-0.5,1.6-0.9,3.6-0.9 c2.1,0,4.1-0.6,4.8-1.4c0.6-0.8,1.7-1.4,2.5-1.4s1.3-0.4,1.3-0.9s-0.5-0.9-1.1-0.9c-0.6,0-0.3-0.9,0.9-2c1.3-1.3,2.6-1.8,3.6-1.4 c1.5,0.6,1.5,0.7,0.1,2.3c-1.8,2-2.1,7.6-0.4,7.6c0.6,0,1.7,0.9,2.4,2c1,1.7,1,2.2-0.2,3.6c-0.8,0.9-1.5,2.3-1.5,3s-0.8,2.2-1.8,3.1 c-1,0.9-2.1,2.8-2.4,4.3s-2.2,4.5-4.2,6.8c-2.6,3-3.7,5.1-3.9,7.8c-0.3,3.4-0.5,3.7-2.9,3.5l-2.6-0.2l0.5,7.4c0.4,6.7,0.3,7.5-1.3,8 c-1,0.3-1.8,1.3-1.8,2.3c0,0.9-0.6,2.2-1.4,2.9c-1,0.8-1.4,3.2-1.5,8.3c0,3.9-0.4,7.9-0.7,8.9C154.2,216.5,154,216.6,153,215.3 L153,215.3z M189.6,134.2c-2.1-2.5-2.1-2.5-3.5-0.7c-1.4,1.8-1.4,1.7-1.4-0.6c0-1.4,0.4-2.7,0.9-3c1.4-0.9,1.1-3.8-0.5-5.2 c-1.6-1.3-1.9-3.8-0.5-3.8c0.5,0,1.5,0.6,2.3,1.4c1.7,1.7,5.9,0.5,6.8-1.9c0.3-0.8,1.3-1.4,2.3-1.4c1.1,0,1.6-0.5,1.2-1.4 c-0.6-1.6,3.2-2.9,6.1-1.9c1.5,0.5,1.9,0.2,1.9-1.3c0-2.2-3.9-5.5-7.4-6.4c-2.9-0.7-5.7-3-5.7-4.6c0-0.7-0.5-1.3-1.1-1.6 c-1.6-0.5-0.1-2.6,2.6-3.6c2.3-0.9,3.1-4.3,1.4-6.1c-1.9-1.9-1-12.6,1-12.6c0.5,0,0.8-0.8,0.8-1.9s0.6-1.9,1.4-1.9 c0.8,0,2-1.3,2.8-2.8c1.5-2.9,2.7-3.5,3.8-1.8c0.3,0.6,1.7,0.8,2.9,0.6c1.4-0.3,2.5,0.1,2.8,0.8c0.6,1.6,2.9,1.7,2.9,0.1 c-0.1-3.9,0.2-4.7,1.6-3.5c1.4,1.1,5.1,0.5,3.9-0.6c-0.9-0.9,2.3-4,4.1-4c0.9,0,3.3-0.8,5.4-1.9s5.8-1.9,8-1.9 c2.8,0,4.3-0.5,4.7-1.4c0.3-0.7,2.3-2.2,4.6-3.3s4.7-2.3,5.4-2.8s2.8-1.4,4.6-2c1.7-0.6,4.4-2.2,5.8-3.4l2.7-2.2l1.9,3.1 c2.6,4.3,2.4,8.8-0.4,12.6c-2.6,3.4-3,5.9-1.2,7.7c0.9,0.9,0.8,1.1-0.4,1.1c-1.8,0-13.9,11.1-13.9,12.8c0,0.7,0.4,1.2,0.9,1.2 c2,0,0.8,1.7-2.3,3.2c-2.6,1.2-3.3,2.1-3.3,4.1c0,1.4-0.5,3.1-1.1,3.7c-0.6,0.6-1.2,3.6-1.3,6.6c-0.2,6.1-1.7,9.2-4.8,10 c-1.2,0.3-2.8,1.8-3.7,3.3c-1.7,2.9-9.3,5.9-10.5,4.2c-0.3-0.5-2-1-3.7-1.1c-3-0.2-3-0.1-3,3.6c0,3.9-1.3,5.1-2.3,2 c-0.3-1-1.7-2.2-3-2.9l-2.5-1.1l0.6,4.3c0.5,3.8,0.4,4.3-1.2,4.3c-1,0-2.1,0.4-2.4,1c-0.3,0.5-1.3,0.7-2.2,0.5 c-1-0.3-2.4,0.4-3.7,1.8c-1.1,1.3-2.8,2.4-3.8,2.4c-1,0-2,0.6-2.3,1.4C193.9,137.5,192,137.1,189.6,134.2L189.6,134.2z M493.9,56.5 c-0.8-1.9-1.7-4.3-2-5.2s-1-1.6-1.6-1.6c-1.6,0-5,2-6.2,3.6c-0.8,1.1-2.1,1.3-5.5,0.8c-5.5-0.8-7-1.9-7-5.4c0-1.5-0.4-2.9-0.9-3.2 c-0.5-0.3-0.9-1.6-0.9-2.9s-0.6-2.6-1.4-2.9c-3.5-1.3,0-6.9,4.3-6.9c1.3,0,2.8-0.5,3.5-1.1c0.9-0.9,0.7-1.5-0.9-2.7 c-2.2-1.7-2.2-2.7,1.1-16c1.9-7.7,7.7-10.2,14.4-6.3c3.9,2.3,5.8,1.7,4.2-1.2c-0.8-1.6-0.7-2.3,1-3.9c1.9-1.9,2.1-1.9,3.2-0.4 c0.7,0.9,2.3,1.6,3.6,1.6c3.2,0,5.7,2.9,5,5.8c-0.6,2.3-5.3,5.1-6.9,4.1c-0.5-0.3-1.4,0.1-2,0.9c-1,1.2-0.9,1.9,0.1,3.8 c1.2,2.2,1.1,2.6-1.3,4.5L495,24l2.4,2.1c1.8,1.6,3.1,2,5.2,1.5c2.3-0.5,2.7-0.3,2.7,1.3c0,1.6,0.6,1.9,3.8,1.9 c3.1,0,3.8,0.3,3.8,1.8c0,1.8,2.3,3.3,3.8,2.4c1.3-0.8,1,2.6-0.4,4.4c-0.6,0.8-2.2,1.8-3.4,2.2c-3.3,1.1-10.4,8-10.4,10.2 c0,1-0.3,1.6-0.6,1.3c-1.1-1.1-4.1,2.4-4.1,4.7C497.8,61.2,495.5,60.4,493.9,56.5L493.9,56.5z" style="stroke-dasharray: 8217.47px, 8217.47px; stroke-dashoffset: 0.324409px;"></path></svg>